HARD RIDE TO HELL 2010 DvDRip H264 PsP

Format                           : MPEG-4
Format profile                   : Base Media / Version 2
Codec ID                         : mp42
File size                        : 301 MiB
Duration                         : 1h 34mn
Overall bit rate                 : 447 Kbps
Encoded date                     : UTC 2010-05-27 13:53:17
Tagged date                      : UTC 2010-05-27 13:53:42
Writing application              : mp4creator 1.6.1d

Video
ID                               : 1
Format                           : AVC
Format/Info                      : Advanced Video Codec
Format profile                   : Baseline@L1.3
Format settings, CABAC           : No
Format settings, ReFrames        : 1 frame
Codec ID                         : avc1
Codec ID/Info                    : Advanced Video Coding
Duration                         : 1h 34mn
Bit rate mode                    : Variable
Bit rate                         : 383 Kbps
Width                            : 480 pixels
Height                           : 272 pixels
Display aspect ratio             : 16:9
Original display aspect ratio    : 16:9
Frame rate mode                  : Constant
Frame rate                       : 24.000 fps
Resolution                       : 24 bits
Colorimetry                      : 4:2:0
Scan type                        : Progressive
Bits/(Pixel*Frame)               : 0.122
Stream size                      : 258 MiB (86%)
Encoded date                     : UTC 2010-05-27 13:53:17
Tagged date                      : UTC 2010-05-27 13:53:41

Audio
ID                               : 2
Format                           : AAC
Format/Info                      : Advanced Audio Codec
Format version                   : Version 4
Format profile                   : LC
Format settings, SBR             : Yes
Format settings, PS              : No
Codec ID                         : 40
Duration                         : 1h 34mn
Bit rate mode                    : Variable
Bit rate                         : 62.7 Kbps
Maximum bit rate                 : 118 Kbps
Channel(s)                       : 2 channels
Channel positions                : L R
Sampling rate                    : 48.0 KHz
Resolution                       : 16 bits
Stream size                      : 42.2 MiB (14%)
Encoded date                     : UTC 2010-05-27 13:53:41
Tagged date                      : UTC 2010-05-27 13:53:42

A group of family and friends on a camping trip through the Texas badlands are taken on a on-way ride to Hell after they inadvertently witness a ritual sacrifice at a deserted campsite. Pursed by the devil worshiping biker gang responsible, they hole up in an abandoned church near the border, only to discover that they are pawns in a decades-old battle between good and evil.
 
http://www.imdb.com/title/tt1654833/

PLEASE SEED AND ENJOY THANKS

To watch this file on you,re PC then i recomend using VLC media player or MEDIA PLAYER CLASSIC 

To burn to disc then i recomend using CONVERTX 2 DVD click link below
   
http://thepiratebay.org/torrent/5018839/VSO.Convert-X.to.DVD.3.5.3%28vice%29

screen shots    
 
http://img707.imageshack.us/img707/7653/hrthh264vicemp4thumbs20.jpg